<svg width="32" height="32" viewBox="0 0 32 32" fill="none" xmlns="http://www.w3.org/2000/svg">
<circle cx="16" cy="16" r="16" fill="#B40000"/>
<path d="M16.8439 19.506C16.2774 19.506 15.7286 19.5073 15.18 19.5025C15.1515 19.5022 15.1022 19.453 15.0983 19.422C14.9911 18.5831 14.8886 17.7436 14.7853 16.9042C14.67 15.9668 14.5552 15.0294 14.4396 14.092C14.3518 13.3804 14.2631 12.669 14.1753 11.9574C14.1717 11.9277 14.1725 11.8974 14.1725 11.8673C14.1724 10.3677 14.1724 8.8681 14.1724 7.36846C14.1724 7.3345 14.1724 7.30055 14.1724 7.25555C15.3812 7.25555 16.5828 7.25555 17.7931 7.25555C17.795 7.29312 17.7986 7.33047 17.7986 7.36789C17.7989 8.87178 17.8088 10.3758 17.7922 11.8796C17.7878 12.2848 17.705 12.6895 17.6546 13.094C17.5399 14.014 17.4232 14.9339 17.3069 15.8537C17.1825 16.8374 17.0576 17.8212 16.9329 18.8049C16.9039 19.0344 16.8747 19.2638 16.8439 19.506Z" fill="white"/>
<path d="M14.0854 24.7445C14.0854 23.4964 14.0854 22.248 14.0854 20.9904C15.3615 20.9904 16.633 20.9904 17.9141 20.9904C17.9141 22.2379 17.9141 23.4858 17.9141 24.7445C16.6427 24.7445 15.3679 24.7445 14.0854 24.7445Z" fill="white"/>
</svg>
